<?xml version="1.0" encoding="UTF-8"?>
<svg xmlns="http://www.w3.org/2000/svg" viewBox="0 0 100 100" role="img">
  <ellipse cx="50" cy="90" rx="27" ry="5" fill="rgba(255,255,255,0.08)" stroke="none" opacity="0.65"/>
  <path d="M50 10v16M42 18h16" fill="none" stroke="#eaf0fb" stroke-width="4.6" stroke-linecap="round"/><path d="M38 32c0-7 5-12 12-12s12 5 12 12c0 5-2 9-5 12h9c4 0 7 3 7 7v7H27v-7c0-4 3-7 7-7h9c-3-3-5-7-5-12z" fill="#1b2435" stroke="#eaf0fb" stroke-width="4.2" stroke-linecap="round" stroke-linejoin="round"/><path d="M31 58h38v10H31z" fill="#1b2435" stroke="#eaf0fb" stroke-width="4.2" stroke-linecap="round" stroke-linejoin="round"/><path d="M24 80h52v8H24z" fill="#1b2435" stroke="#eaf0fb" stroke-width="4.2" stroke-linecap="round" stroke-linejoin="round"/><path d="M36 68h28" fill="none" stroke="#55647f" stroke-width="3.2"/>
</svg>
