<?xml version="1.0" encoding="UTF-8"?>
<svg xmlns="http://www.w3.org/2000/svg" viewBox="0 0 100 100" role="img">
  <ellipse cx="50" cy="90" rx="27" ry="5" fill="rgba(255,255,255,0.08)" stroke="none" opacity="0.65"/>
  <path d="M69 24c-8 0-16 4-22 11l-10 5l7 9c-5 5-7 11-7 18v8h34c0-7-2-14-5-19l7-4c4-3 8-8 8-15c0-6-5-13-12-13z" fill="#1b2435" stroke="#eaf0fb" stroke-width="4.2" stroke-linecap="round" stroke-linejoin="round"/><path d="M43 41c7-4 15-4 21 1" fill="none" stroke="#55647f" stroke-width="3.4"/><circle cx="58" cy="33" r="2.7" fill="#eaf0fb" stroke="none"/><path d="M33 75h40v7H33z" fill="#1b2435" stroke="#eaf0fb" stroke-width="4.2" stroke-linecap="round" stroke-linejoin="round"/><path d="M27 84h49v6H27z" fill="#1b2435" stroke="#eaf0fb" stroke-width="4.2" stroke-linecap="round" stroke-linejoin="round"/>
</svg>
